<?xml version="1.0" encoding="UTF-8"?>
<svg width="57px" height="37px" viewBox="0 0 57 37" version="1.1" xmlns="http://www.w3.org/2000/svg" xmlns:xlink="http://www.w3.org/1999/xlink">
    <!-- Generator: Sketch 46.2 (44496) - http://www.bohemiancoding.com/sketch -->
    <title>hanger</title>
    <desc>Created with Sketch.</desc>
    <defs></defs>
    <g id="Page-1" stroke="none" stroke-width="1" fill="none" fill-rule="evenodd">
        <g id="Artboard-Copy-4" transform="translate(-982.000000, -2333.000000)" fill-rule="nonzero" fill="#9B9B9B">
            <g id="hanger" transform="translate(982.000000, 2333.000000)">
                <path d="M55.3230677,31.1578483 L35.2604429,18.982115 C34.7744965,18.687235 34.3992102,18.2569858 34.1749958,17.7381072 L33.300515,15.7128603 C32.8875998,14.756457 31.9419806,14.1385869 30.8917131,14.1385869 L29.3349036,14.1385869 L29.3349036,11.1667476 C29.3349036,10.0165502 28.5798778,9.01958021 27.4561339,8.6858973 C25.9352833,8.23426239 24.8729924,6.81938953 24.8728811,5.24522636 C24.8728811,4.31075988 25.2570737,3.41564748 25.954877,2.7248015 C26.652569,2.03395552 27.556329,1.65353275 28.5000557,1.65353275 L28.5002783,1.65353275 C30.5000615,1.65364299 32.1271189,3.26473506 32.1271189,5.24500588 C32.1271189,5.70171163 32.500958,6.07177226 32.9620782,6.07177226 C33.4231984,6.07177226 33.7970375,5.70171163 33.7970375,5.24500588 C33.7970375,2.35308734 31.420966,0.000110235517 28.5003896,0 C28.5002783,0 28.500167,0 28.4999443,0 C27.1103494,0 25.7869946,0.55250041 24.7739106,1.55553338 C23.7607153,2.55889705 23.2027398,3.8691564 23.2028512,5.24544683 C23.2029625,7.54407782 24.7547622,9.61011187 26.9763106,10.269651 C27.3882239,10.3920124 27.664985,10.7524825 27.664985,11.1667476 L27.664985,14.1385869 L26.1082869,14.1385869 C25.0579081,14.1385869 24.1124002,14.756457 23.699485,15.7128603 L22.8250042,17.737997 C22.6007898,18.2569858 22.2255035,18.687235 21.7395571,18.982115 L1.67682094,31.1578483 C0.642473355,31.7856396 0,32.9217268 0,34.1230735 L0,36.1732336 C0,36.4653577 0.155636415,36.7358757 0.409575372,36.8845834 C0.663403001,37.0335116 0.977793012,37.0384722 1.23651907,36.8981424 L4.30371425,35.2327042 L52.6963971,35.2327042 L55.7635923,36.8981424 C55.8888362,36.9660475 56.0269941,37 56.1650407,37 C56.3123275,37 56.459503,36.9614176 56.5904246,36.8845834 C56.8442523,36.7357655 57,36.4653577 57,36.1732336 L57,34.1230735 C56.9998887,32.9217268 56.3574153,31.7856396 55.3230677,31.1578483 Z M46.8386566,32.0519686 L49.6510222,33.5791714 L7.34875518,33.5791714 L28.4722237,22.1089455 C28.4894795,22.0994652 28.5102978,22.0994652 28.5275537,22.1089455 L43.8640862,30.4367978 C44.2684292,30.656387 44.7758618,30.5097737 44.9977383,30.1093983 C45.2195035,29.7090229 45.0714374,29.2065694 44.6670944,28.9868701 L29.3304505,20.6590177 C28.8104379,20.3765943 28.1894508,20.3768148 27.6693268,20.6590177 L1.66991861,34.7767701 L1.66991861,34.1229632 C1.66991861,33.492857 2.00690819,32.8969238 2.54952041,32.5676503 L22.612034,20.3919171 C23.3946692,19.9169122 23.999291,19.224082 24.3603274,18.3880558 L25.2348081,16.3629192 C25.3845442,16.0161182 25.7273228,15.7920094 26.1081756,15.7920094 L30.8916018,15.7920094 C31.2724545,15.7920094 31.6152332,16.016008 31.7649692,16.3628089 L32.6394499,18.3881661 C33.0004863,19.224082 33.6051082,19.9169122 34.3877434,20.3919171 L54.4502569,32.5676503 C54.9928692,32.8969238 55.3298587,33.4929673 55.3298587,34.1229632 L55.3298587,34.7766599 L47.6416648,30.6020408 C47.2370991,30.3823415 46.7297779,30.5291752 46.5080127,30.9294403 C46.2862475,31.3298157 46.4343136,31.8322692 46.8386566,32.0519686 Z" id="Shape"></path>
            </g>
        </g>
    </g>
</svg>