<?xml version="1.0" encoding="UTF-8"?>
<svg width="42px" height="42px" viewBox="0 0 42 42" version="1.1" xmlns="http://www.w3.org/2000/svg" xmlns:xlink="http://www.w3.org/1999/xlink">
    <!-- Generator: Sketch 46.2 (44496) - http://www.bohemiancoding.com/sketch -->
    <title>hanger (1)</title>
    <desc>Created with Sketch.</desc>
    <defs></defs>
    <g id="Page-1" stroke="none" stroke-width="1" fill="none" fill-rule="evenodd">
        <g id="Artboard-Copy-4" transform="translate(-619.000000, -2328.000000)" fill-rule="nonzero" fill="#9B9B9B">
            <g id="hanger-(1)" transform="translate(619.000000, 2328.000000)">
                <path d="M32.8695652,2.73913043 C32.3655883,2.73913043 31.9565217,3.07920346 31.9565217,3.49997028 L31.9565217,6.54350798 C31.9565217,6.9642748 32.3655883,7.30434783 32.8695652,7.30434783 C33.3735421,7.30434783 33.7826087,6.9642748 33.7826087,6.54350798 L33.7826087,3.50005944 C33.7826087,3.07929263 33.3735421,2.73913043 32.8695652,2.73913043 Z" id="Shape"></path>
                <path d="M10.0434783,2.73913043 C9.53950137,2.73913043 9.13043478,3.07920346 9.13043478,3.49997028 L9.13043478,6.54350798 C9.13043478,6.9642748 9.53950137,7.30434783 10.0434783,7.30434783 C10.5474551,7.30434783 10.9565217,6.9642748 10.9565217,6.54350798 L10.9565217,3.50005944 C10.9565217,3.07929263 10.5474551,2.73913043 10.0434783,2.73913043 Z" id="Shape"></path>
                <path d="M4.56521739,36.5217391 C3.05453475,36.5217391 1.82608696,37.7502492 1.82608696,39.2608294 C1.82608696,40.7714097 3.05453475,42 4.56521739,42 C6.07590003,42 7.30434783,40.7714899 7.30434783,39.2609097 C7.30434783,37.7503294 6.07590003,36.5217391 4.56521739,36.5217391 Z M4.56521739,40.6304147 C3.8099162,40.6304147 3.19561205,40.0161998 3.19561205,39.2608294 C3.19561205,38.5054591 3.8099162,37.8913244 4.56521739,37.8913244 C5.32051859,37.8913244 5.93482273,38.5055393 5.93482273,39.2609097 C5.93482273,40.0162801 5.32051859,40.6304147 4.56521739,40.6304147 Z" id="Shape"></path>
                <path d="M7.53270899,34.6956522 L0.684762545,34.6956522 C0.306790954,34.6956522 0,35.0221274 0,35.4260698 L0,37.6174084 C0,38.0213509 0.306790954,38.3478261 0.684762545,38.3478261 L7.53262874,38.3478261 C7.91060033,38.3478261 8.21739129,38.0213509 8.21739129,37.6174084 L8.21739129,35.4260698 C8.21747154,35.022213 7.91068058,34.6956522 7.53270899,34.6956522 Z M6.8478662,36.8869908 L1.36960534,36.8869908 L1.36960534,36.1565731 L6.84794645,36.1565731 L6.84794645,36.8869908 L6.8478662,36.8869908 Z" id="Shape"></path>
                <path d="M5.6305388,2.73913043 L2.58694166,2.73913043 C2.16696912,2.73913043 1.82608696,3.05170872 1.82608696,3.43845673 L1.82608696,34.9093694 C1.82608696,35.2961174 2.16696912,35.6086957 2.58694166,35.6086957 L5.63044963,35.6086957 C6.05042216,35.6086957 6.39130433,35.2961174 6.39130433,34.9093694 L6.39130433,3.43845673 C6.3913935,3.05179067 6.05051133,2.73913043 5.6305388,2.73913043 Z M4.86959493,34.2100431 L3.34788553,34.2100431 L3.34788553,4.13786498 L4.86968409,4.13786498 L4.86968409,34.2100431 L4.86959493,34.2100431 Z" id="Shape"></path>
                <path d="M37.4347826,36.5217391 C35.9241,36.5217391 34.6956522,37.7502492 34.6956522,39.2608294 C34.6956522,40.7714097 35.9241,42 37.4347826,42 C38.9454652,42 40.173913,40.7714899 40.173913,39.2609097 C40.173913,37.7503294 38.9454652,36.5217391 37.4347826,36.5217391 Z M37.4347826,40.6304147 C36.6794814,40.6304147 36.0651773,40.0161998 36.0651773,39.2608294 C36.0651773,38.5054591 36.6794814,37.8913244 37.4347826,37.8913244 C38.1900838,37.8913244 38.804388,38.5055393 38.804388,39.2609097 C38.804388,40.0162801 38.1900838,40.6304147 37.4347826,40.6304147 Z" id="Shape"></path>
                <path d="M41.3152375,34.6956522 L34.4673712,34.6956522 C34.0893997,34.6956522 33.7826087,35.0221274 33.7826087,35.4260698 L33.7826087,37.6174084 C33.7826087,38.0213509 34.0893997,38.3478261 34.4673712,38.3478261 L41.3152375,38.3478261 C41.693209,38.3478261 42,38.0213509 42,37.6174084 L42,35.4260698 C42,35.022213 41.693209,34.6956522 41.3152375,34.6956522 Z M40.6303947,36.8869908 L35.1520535,36.8869908 L35.1520535,36.1565731 L40.6303947,36.1565731 L40.6303947,36.8869908 Z" id="Shape"></path>
                <path d="M39.4130583,2.73913043 L36.3695504,2.73913043 C35.9495778,2.73913043 35.6086957,3.05170872 35.6086957,3.43845673 L35.6086957,34.9093694 C35.6086957,35.2961174 35.9495778,35.6086957 36.3695504,35.6086957 L39.4130583,35.6086957 C39.8330309,35.6086957 40.173913,35.2961174 40.173913,34.9093694 L40.173913,3.43845673 C40.173913,3.05179067 39.8330309,2.73913043 39.4130583,2.73913043 Z M38.6521145,34.2100431 L37.1303159,34.2100431 L37.1303159,4.13786498 L38.6521145,4.13786498 L38.6521145,34.2100431 Z" id="Shape"></path>
                <path d="M39.9,0 L2.1,0 C0.942210938,0 0,1.02414232 0,2.2826087 C0,3.54107507 0.942210938,4.56521739 2.1,4.56521739 L39.9,4.56521739 C41.0577891,4.56521739 42,3.54107507 42,2.2826087 C42,1.02414232 41.0577891,0 39.9,0 Z M39.9,3.04344854 L2.1,3.04344854 C1.71363281,3.04344854 1.40002734,2.70257303 1.40002734,2.2826087 C1.40002734,1.86264436 1.71363281,1.52176885 2.1,1.52176885 L39.9,1.52176885 C40.2863672,1.52176885 40.5999727,1.86264436 40.5999727,2.2826087 C40.5999727,2.70257303 40.2863672,3.04344854 39.9,3.04344854 Z" id="Shape"></path>
                <path d="M13.6956522,2.73913043 C13.1916753,2.73913043 12.7826087,3.04519915 12.7826087,3.42389298 L12.7826087,7.53262876 C12.7826087,7.91132259 13.1916753,8.2173913 13.6956522,8.2173913 C14.199629,8.2173913 14.6086956,7.91132259 14.6086956,7.53262876 L14.6086956,3.42389298 C14.6088026,3.0452794 14.199736,2.73913043 13.6956522,2.73913043 Z" id="Shape"></path>
                <path d="M13.6956522,10.0434783 C9.87293648,10.0434783 7.30434783,11.4199047 7.30434783,13.4674515 L7.30434783,14.8369766 C7.30434783,15.2156704 7.6224983,15.5217391 8.01446501,15.5217391 L9.43478261,15.5217391 L9.43478261,20.3152375 C9.43478261,20.6939313 9.75293308,21 10.1448998,21 L17.2464046,21 C17.6383713,21 17.9565217,20.6939313 17.9565217,20.3152375 L17.9565217,15.5217391 L19.3768393,15.5217391 C19.768806,15.5217391 20.0869565,15.2156704 20.0869565,14.8369766 L20.0869565,13.4673712 C20.0869565,11.4199047 17.5183679,10.0434783 13.6956522,10.0434783 Z M18.6667221,14.152214 L17.2464046,14.152214 C16.8544378,14.152214 16.5362874,14.4582828 16.5362874,14.8369766 L16.5362874,19.6304749 L10.8551002,19.6304749 L10.8551002,14.8369766 C10.8551002,14.4582828 10.5369497,14.152214 10.144983,14.152214 L8.72466542,14.152214 L8.72466542,13.4674515 C8.72466542,12.4718053 10.4666287,11.4130836 13.6956522,11.4130836 C16.9246756,11.4130836 18.6666389,12.4718053 18.6666389,13.4674515 L18.6666389,14.152214 L18.6667221,14.152214 Z" id="Shape"></path>
                <path d="M17.6522003,10.0434783 C16.7506413,10.0434783 15.9051969,10.129745 15.1402786,10.2989081 C14.8298253,10.3680821 14.6086957,10.6460617 14.6086957,10.967937 C14.6086957,11.2898124 14.8298253,11.567792 15.1402786,11.6369659 C16.6660731,11.9759342 17.6522003,12.6942354 17.6522003,13.4674264 L17.6522003,14.1521839 L16.2995052,14.1521839 C15.9262003,14.1521839 15.6231972,14.4582504 15.6231972,14.8369415 L15.6231972,20.3152425 C15.6231972,20.6939335 15.9262003,21 16.2995052,21 L21.0338194,21 C21.4071242,21 21.7101273,20.6939335 21.7101273,20.3152425 L21.7101273,15.5217793 L23.0628225,15.5217793 C23.4361274,15.5217793 23.7391304,15.2157128 23.7391304,14.8370217 L23.7391304,13.4674264 C23.7392097,11.4198947 21.2929135,10.0434783 17.6522003,10.0434783 Z M22.3865145,14.1521839 L21.0338194,14.1521839 C20.6605145,14.1521839 20.3575114,14.4582504 20.3575114,14.8369415 L20.3575114,19.6304047 L16.9758131,19.6304047 L16.9758131,15.521699 L18.3285083,15.521699 C18.7018132,15.521699 19.0048162,15.2156325 19.0048162,14.8369415 L19.0048162,13.4673462 C19.0048162,12.679871 18.6294507,11.9765761 17.9443451,11.416444 C20.8322664,11.4815252 22.3865145,12.5038868 22.3865145,13.4673462 L22.3865145,14.1521839 Z" id="Shape"></path>
                <path d="M22.2174177,10.0434783 C21.3158587,10.0434783 20.4704143,10.129745 19.705496,10.2989081 C19.3950427,10.3680821 19.173913,10.6460617 19.173913,10.967937 C19.173913,11.2898124 19.3950427,11.567792 19.705496,11.6369659 C21.2312905,11.9759342 22.2174177,12.6942354 22.2174177,13.4674264 L22.2174177,14.1521839 L20.8647226,14.1521839 C20.4914177,14.1521839 20.1884146,14.4582504 20.1884146,14.8369415 L20.1884146,20.3152425 C20.1884146,20.6939335 20.4914177,21 20.8647226,21 L25.5990368,21 C25.9723416,21 26.2753447,20.6939335 26.2753447,20.3152425 L26.2753447,15.5217793 L27.6280399,15.5217793 C28.0013447,15.5217793 28.3043478,15.2157128 28.3043478,14.8370217 L28.3043478,13.4674264 C28.3044271,11.4198947 25.8581309,10.0434783 22.2174177,10.0434783 Z M26.9517319,14.1521839 L25.5990368,14.1521839 C25.2257319,14.1521839 24.9227288,14.4582504 24.9227288,14.8369415 L24.9227288,19.6304047 L21.5410305,19.6304047 L21.5410305,15.521699 L22.8937257,15.521699 C23.2670305,15.521699 23.5700336,15.2156325 23.5700336,14.8369415 L23.5700336,13.4673462 C23.5700336,12.679871 23.1946681,11.9765761 22.5095625,11.416444 C25.3974838,11.4815252 26.9517319,12.5038868 26.9517319,13.4673462 L26.9517319,14.1521839 L26.9517319,14.1521839 Z" id="Shape"></path>
                <path d="M13.2390413,7.30434783 C12.8190769,7.30434783 12.4782014,7.6444275 12.4782014,8.06520253 C12.4782014,8.48597756 12.8190769,8.82605723 13.2390413,8.82605723 C13.6590056,8.82605723 13.9998811,9.1669394 13.9998811,9.58691194 C13.9998811,10.0068845 13.6590056,10.3477666 13.2390413,10.3477666 C12.8190769,10.3477666 12.4782014,10.0068845 12.4782014,9.58691194 C12.4782014,9.16613691 12.1373259,8.82605723 11.7173616,8.82605723 C11.2973972,8.82605723 10.9565217,9.16613691 10.9565217,9.58691194 C10.9565217,10.8454029 11.9806641,11.8695652 13.2391304,11.8695652 C14.4975968,11.8695652 15.5217391,10.8454029 15.5217391,9.58691194 C15.5217391,8.32842099 14.4975076,7.30434783 13.2390413,7.30434783 Z" id="Shape"></path>
                <path d="M19.173913,2.73913043 C18.6699362,2.73913043 18.2608696,3.04519915 18.2608696,3.42389298 L18.2608696,7.53262876 C18.2608696,7.91132259 18.6699362,8.2173913 19.173913,8.2173913 C19.6778899,8.2173913 20.0869565,7.91132259 20.0869565,7.53262876 L20.0869565,3.42389298 C20.0869565,3.0452794 19.6778899,2.73913043 19.173913,2.73913043 Z" id="Shape"></path>
                <path d="M24.6521739,2.73913043 C24.148197,2.73913043 23.7391304,3.04519915 23.7391304,3.42389298 L23.7391304,7.53262876 C23.7391304,7.91132259 24.148197,8.2173913 24.6521739,8.2173913 C25.1561508,8.2173913 25.5652174,7.91132259 25.5652174,7.53262876 L25.5652174,3.42389298 C25.5652174,3.0452794 25.1561508,2.73913043 24.6521739,2.73913043 Z" id="Shape"></path>
                <path d="M28,10.0434783 C27.0082937,10.0434783 26.078313,10.129745 25.2369101,10.2989081 C24.8954144,10.3680821 24.6521739,10.6460617 24.6521739,10.967937 C24.6521739,11.2898124 24.8954144,11.567792 25.2369101,11.6369659 C26.9152695,11.9759342 28,12.6942354 28,13.4674264 L28,14.1521839 L26.5120482,14.1521839 C26.1014164,14.1521839 25.7681159,14.4582504 25.7681159,14.8369415 L25.7681159,20.3152425 C25.7681159,20.6939335 26.1014164,21 26.5120482,21 L31.7198358,21 C32.1304676,21 32.4637681,20.6939335 32.4637681,20.3152425 L32.4637681,15.5217793 L33.9517199,15.5217793 C34.3623517,15.5217793 34.6956522,15.2157128 34.6956522,14.8370217 L34.6956522,13.4674264 C34.6956522,11.4198947 32.0047498,10.0434783 28,10.0434783 Z M33.2077876,14.1521839 L31.7198358,14.1521839 C31.309204,14.1521839 30.9759035,14.4582504 30.9759035,14.8369415 L30.9759035,19.6304047 L27.2560677,19.6304047 L27.2560677,15.521699 L28.7440195,15.521699 C29.1546513,15.521699 29.4879518,15.2156325 29.4879518,14.8369415 L29.4879518,13.4673462 C29.4879518,12.679871 29.0750532,11.9765761 28.3214436,11.416444 C31.4981295,11.4815252 33.2077876,12.5038868 33.2077876,13.4673462 L33.2077876,14.1521839 Z" id="Shape"></path>
                <path d="M30.1304348,2.73913043 C29.6264579,2.73913043 29.2173913,3.04519915 29.2173913,3.42389298 L29.2173913,7.53262876 C29.2173913,7.91132259 29.6264579,8.2173913 30.1304348,8.2173913 C30.6344117,8.2173913 31.0434782,7.91132259 31.0434782,7.53262876 L31.0434782,3.42389298 C31.0435852,3.0452794 30.6345187,2.73913043 30.1304348,2.73913043 Z" id="Shape"></path>
                <path d="M35.8269773,28.3043478 L5.25989784,28.3043478 C4.87645182,28.3043478 4.56521739,28.6444275 4.56521739,29.0652025 L4.56521739,32.1087105 C4.56521739,32.5294855 4.87645182,32.8695652 5.25989784,32.8695652 L35.8270587,32.8695652 C36.2105047,32.8695652 36.5217391,32.5294855 36.5217391,32.1087105 L36.5217391,29.0652025 C36.5217391,28.6444275 36.2105047,28.3043478 35.8269773,28.3043478 Z M35.1322968,31.3478558 L5.95457829,31.3478558 L5.95457829,29.8260572 L35.1322968,29.8260572 L35.1322968,31.3478558 Z" id="Shape"></path>
                <path d="M33.0652414,25.5652174 L24.4564977,25.5652174 C24.0605291,25.5652174 23.7391304,25.9052904 23.7391304,26.3260572 L23.7391304,29.3695949 C23.7391304,29.7903618 24.0605291,30.1304348 24.4564977,30.1304348 L33.0652414,30.1304348 C33.46121,30.1304348 33.7826087,29.7903618 33.7826087,29.3695949 L33.7826087,26.3261464 C33.7826087,25.9053796 33.46121,25.5652174 33.0652414,25.5652174 Z M32.3477901,28.6087551 L25.173865,28.6087551 L25.173865,27.0869862 L32.3477901,27.0869862 L32.3477901,28.6087551 Z" id="Shape"></path>
                <path d="M32.1391561,22.826087 L26.2956265,22.826087 C25.8924592,22.826087 25.5652174,23.1661666 25.5652174,23.5869417 L25.5652174,26.6304496 C25.5652174,27.0512247 25.8924592,27.3913043 26.2956265,27.3913043 L32.1391561,27.3913043 C32.5423234,27.3913043 32.8695652,27.0512247 32.8695652,26.6304496 L32.8695652,23.5869417 C32.8695652,23.1661666 32.5423234,22.826087 32.1391561,22.826087 Z M31.408747,25.8695949 L27.0261212,25.8695949 L27.0261212,24.3477964 L31.408747,24.3477964 L31.408747,25.8695949 Z" id="Shape"></path>
                <path d="M21.2282809,25.5652174 L17.1195452,25.5652174 C16.7415736,25.5652174 16.4347826,25.9052904 16.4347826,26.3260572 L16.4347826,29.3695949 C16.4347826,29.7903618 16.7415736,30.1304348 17.1195452,30.1304348 L21.2282809,30.1304348 C21.6062525,30.1304348 21.9130435,29.7903618 21.9130435,29.3695949 L21.9130435,26.3261464 C21.9131237,25.9053796 21.6063328,25.5652174 21.2282809,25.5652174 Z M20.5435184,28.6087551 L17.8043879,28.6087551 L17.8043879,27.0869862 L20.5435184,27.0869862 L20.5435184,28.6087551 Z" id="Shape"></path>
                <path d="M20.0869565,22.826087 C19.5829796,22.826087 19.173913,23.1175798 19.173913,23.478239 L19.173913,26.7391523 C19.173913,27.0998116 19.5829796,27.3913043 20.0869565,27.3913043 C20.5909334,27.3913043 21,27.0998116 21,26.7391523 L21,23.478239 C21.000107,23.1175798 20.5910404,22.826087 20.0869565,22.826087 Z" id="Shape"></path>
                <path d="M22.5339815,22.9779298 C22.2118709,22.7267817 21.7538284,22.7937605 21.5113253,23.1301705 L19.3199801,26.1743599 C19.0781617,26.5099672 19.1432172,26.9872021 19.4660983,27.2390637 C19.597579,27.3418061 19.7509731,27.3913043 19.9035969,27.3913043 C20.1256418,27.3913043 20.3455467,27.2862431 20.488669,27.0869122 L22.6800142,24.0427227 C22.9218325,23.7070262 22.856777,23.2298805 22.5339815,22.9779298 Z" id="Shape"></path>
                <path d="M19.9409321,26.1744253 L17.7495872,23.1301764 C17.5077689,22.7937598 17.049812,22.7267797 16.726931,22.9779327 C16.4040501,23.2297992 16.3390801,23.7070434 16.5808129,24.0426573 L18.7721577,27.0869062 C18.9160503,27.2863302 19.1351848,27.3913043 19.3572297,27.3913043 C19.5091686,27.3913043 19.6632476,27.3418051 19.7947283,27.2390607 C20.1176948,26.9872834 20.1826648,26.5100392 19.9409321,26.1744253 Z" id="Shape"></path>
                <path d="M11.1087105,22.826087 L8.06520253,22.826087 C7.64522999,22.826087 7.30434783,23.1228801 7.30434783,23.4900974 L7.30434783,29.4664244 C7.30434783,29.8336417 7.64522999,30.1304348 8.06520253,30.1304348 L11.1087105,30.1304348 C11.528683,30.1304348 11.8695652,29.8336417 11.8695652,29.4664244 L11.8695652,23.4900974 C11.8696544,23.1228801 11.5287722,22.826087 11.1087105,22.826087 Z M10.3478558,28.802414 L8.82605723,28.802414 L8.82605723,24.1541856 L10.3478558,24.1541856 L10.3478558,28.802414 Z" id="Shape"></path>
                <path d="M14.7608844,23.7391304 L11.7173764,23.7391304 C11.2974039,23.7391304 10.9565217,24.0565319 10.9565217,24.4492476 L10.9565217,29.4203176 C10.9565217,29.8130333 11.2974039,30.1304348 11.7173764,30.1304348 L14.7608844,30.1304348 C15.180857,30.1304348 15.5217391,29.8130333 15.5217391,29.4203176 L15.5217391,24.4493308 C15.5217391,24.0566151 15.180857,23.7391304 14.7608844,23.7391304 Z M13.9999406,28.7102004 L12.478142,28.7102004 L12.478142,25.159448 L13.9999406,25.159448 L13.9999406,28.7102004 Z" id="Shape"></path>
                <path d="M18.7173021,7.30434783 C18.2973378,7.30434783 17.9564623,7.6444275 17.9564623,8.06520253 C17.9564623,8.48597756 18.2973378,8.82605723 18.7173021,8.82605723 C19.1372665,8.82605723 19.478142,9.1669394 19.478142,9.58691194 C19.478142,10.0068845 19.1372665,10.3477666 18.7173021,10.3477666 C18.2973378,10.3477666 17.9564623,10.0068845 17.9564623,9.58691194 C17.9564623,9.16613691 17.6155868,8.82605723 17.1956225,8.82605723 C16.7756581,8.82605723 16.4347826,9.16613691 16.4347826,9.58691194 C16.4347826,10.8454029 17.4589249,11.8695652 18.7173913,11.8695652 C19.9758577,11.8695652 21,10.8454029 21,9.58691194 C21,8.32842099 19.9757685,7.30434783 18.7173021,7.30434783 Z" id="Shape"></path>
                <path d="M25.1086065,7.30434783 C24.6886422,7.30434783 24.3477666,7.6444275 24.3477666,8.06520253 C24.3477666,8.48597756 24.6886422,8.82605723 25.1086065,8.82605723 C25.5285708,8.82605723 25.8694463,9.1669394 25.8694463,9.58691194 C25.8694463,10.0068845 25.5285708,10.3477666 25.1086065,10.3477666 C24.6886422,10.3477666 24.3477666,10.0068845 24.3477666,9.58691194 C24.3477666,9.16613691 24.0068911,8.82605723 23.5869268,8.82605723 C23.1669625,8.82605723 22.826087,9.16613691 22.826087,9.58691194 C22.826087,10.8454029 23.8502293,11.8695652 25.1086957,11.8695652 C26.367162,11.8695652 27.3913043,10.8454029 27.3913043,9.58691194 C27.3913043,8.32842099 26.3670729,7.30434783 25.1086065,7.30434783 Z" id="Shape"></path>
                <path d="M30.5868674,7.30434783 C30.166903,7.30434783 29.8260275,7.6444275 29.8260275,8.06520253 C29.8260275,8.48597756 30.166903,8.82605723 30.5868674,8.82605723 C31.0068317,8.82605723 31.3477072,9.1669394 31.3477072,9.58691194 C31.3477072,10.0068845 31.0068317,10.3477666 30.5868674,10.3477666 C30.166903,10.3477666 29.8260275,10.0068845 29.8260275,9.58691194 C29.8260275,9.16613691 29.485152,8.82605723 29.0651877,8.82605723 C28.6452233,8.82605723 28.3043478,9.16613691 28.3043478,9.58691194 C28.3043478,10.8454029 29.3284901,11.8695652 30.5869565,11.8695652 C31.8454229,11.8695652 32.8695652,10.8454029 32.8695652,9.58691194 C32.8695652,8.32842099 31.8453337,7.30434783 30.5868674,7.30434783 Z" id="Shape"></path>
            </g>
        </g>
    </g>
</svg>