<?xml version="1.0" encoding="UTF-8"?>
<svg width="22px" height="16px" viewBox="0 0 22 16" version="1.1" xmlns="http://www.w3.org/2000/svg" xmlns:xlink="http://www.w3.org/1999/xlink">
    <!-- Generator: Sketch 46.2 (44496) - http://www.bohemiancoding.com/sketch -->
    <title>continuous-line-envelope</title>
    <desc>Created with Sketch.</desc>
    <defs></defs>
    <g id="Page-1" stroke="none" stroke-width="1" fill="none" fill-rule="evenodd">
        <g id="Artboard-Copy-4" transform="translate(-342.000000, -4828.000000)" fill-rule="nonzero" fill="#000000">
            <g id="Group-10" transform="translate(94.000000, 4795.000000)">
                <g id="continuous-line-envelope" transform="translate(248.000000, 33.000000)">
                    <path d="M20.0696078,15.2307692 L1.93039216,15.2307692 C0.866339869,15.2307692 0,14.3755466 0,13.3251488 L0,1.90562047 C0,1.33783784 0.161764706,0.975876407 0.485294118,0.830382106 C1.17189542,0.514553015 2.26470588,1.38751882 2.42287582,1.51526991 L10.9892157,7.38117428 L18.5957516,2.16112266 C18.6820261,2.10079576 18.8042484,2.1220876 18.8653595,2.21080364 C18.9264706,2.29597104 18.9049379,2.41662485 18.8150686,2.47695175 L11.1006536,7.77152484 C11.0359477,7.81769267 10.9460784,7.81769267 10.8777778,7.77152484 L2.19281046,1.82755036 C2.18921569,1.82400172 2.18202614,1.82045308 2.17843137,1.81690444 C1.77941176,1.4797835 1.00653595,1.01491146 0.650653595,1.17814897 C0.43496732,1.27751093 0.388235294,1.62882644 0.388235294,1.90562047 L0.388235294,13.3216001 C0.388235294,14.1625927 1.08202614,14.8439673 1.93039216,14.8439673 L20.0696078,14.8439673 C20.9215686,14.8439673 21.6117647,14.159044 21.6117647,13.3216001 L21.6117647,1.90562047 C21.6117647,1.06459244 20.9179739,0.38325328 20.0696078,0.38325328 L4.48267974,0.38325328 C4.3748366,0.38325328 4.28856209,0.298085884 4.28856209,0.19162664 C4.28856209,0.0851673955 4.3748366,0 4.48267974,0 L20.0696078,0 C21.1336961,0 22,0.855222597 22,1.90562047 L22,13.3216001 C22,14.3755466 21.1336601,15.2307692 20.0696078,15.2307692 Z" id="Shape"></path>
                </g>
            </g>
        </g>
    </g>
</svg>