<?xml version="1.0" encoding="UTF-8"?>
<svg width="81px" height="80px" viewBox="0 0 81 80" version="1.1" xmlns="http://www.w3.org/2000/svg" xmlns:xlink="http://www.w3.org/1999/xlink">
    <!-- Generator: Sketch 46.2 (44496) - http://www.bohemiancoding.com/sketch -->
    <title>placeholder (2) copy</title>
    <desc>Created with Sketch.</desc>
    <defs></defs>
    <g id="Page-1" stroke="none" stroke-width="1" fill="none" fill-rule="evenodd">
        <g id="Artboard-Copy-4" transform="translate(-662.000000, -4441.000000)" fill-rule="nonzero" fill="#DFDFDF">
            <g id="placeholder-(2)-copy" transform="translate(662.000000, 4441.000000)">
                <path d="M41,33 C45.9615714,33 50,28.9615714 50,24 C50,19.0384286 45.9615714,15 41,15 C36.0384286,15 32,19.0384286 32,24 C32,28.9615714 36.0371429,33 41,33 Z M41,17.5714286 C44.5447143,17.5714286 47.4285714,20.4552857 47.4285714,24 C47.4285714,27.5447143 44.5447143,30.4285714 41,30.4285714 C37.4552857,30.4285714 34.5714286,27.5447143 34.5714286,24 C34.5714286,20.4552857 37.4552857,17.5714286 41,17.5714286 Z" id="Shape"></path>
                <path d="M66.4971227,49.3328222 L57.0143703,49.3328222 L61.0492741,43.4660578 C68.6701707,33.2378873 67.5670939,16.4256071 58.6908351,7.48945816 C53.8958279,2.66004433 47.5183756,0 40.7343873,0 C33.9517231,0 27.5742709,2.66004433 22.7779394,7.48945816 C13.9016806,16.4256071 12.7986038,33.2392207 20.3890433,43.4260571 L24.4517558,49.3341556 L14.5028773,49.3341556 L0,80 L81,80 L66.4971227,49.3328222 Z M22.5382553,41.8660311 C15.6536261,32.621877 16.6401713,17.4389573 24.6517133,9.37348956 C28.9474889,5.04808413 34.6601818,2.66537776 40.7357115,2.66537776 C46.8112412,2.66537776 52.5226099,5.04808413 56.8197097,9.37348956 C64.8312516,17.4389573 65.8177969,32.6232104 58.9027106,41.9060318 L40.7343873,68.3238054 L27.6735875,49.3328222 L27.6735875,49.3328222 L22.5382553,41.8660311 Z M16.1766937,51.9995333 L26.285803,51.9995333 L40.7343873,73.0092168 L55.1816473,51.9995333 L64.8233063,51.9995333 L76.8048653,77.3332889 L4.19513471,77.3332889 L16.1766937,51.9995333 Z" id="Shape"></path>
            </g>
        </g>
    </g>
</svg>