<?xml version="1.0" encoding="UTF-8"?>
<svg width="40px" height="48px" viewBox="0 0 40 48" version="1.1" xmlns="http://www.w3.org/2000/svg" xmlns:xlink="http://www.w3.org/1999/xlink">
    <!-- Generator: Sketch 46.2 (44496) - http://www.bohemiancoding.com/sketch -->
    <title>quality</title>
    <desc>Created with Sketch.</desc>
    <defs></defs>
    <g id="Page-1" stroke="none" stroke-width="1" fill="none" fill-rule="evenodd">
        <g id="Artboard-Copy-4" transform="translate(-250.000000, -2322.000000)" fill-rule="nonzero" fill="#9B9B9B">
            <g id="quality" transform="translate(250.000000, 2322.000000)">
                <path d="M31.4999878,3.13398921 C31.0219687,2.85807366 30.4100404,3.02198586 30.1340335,3.49984683 C29.8580267,3.97870605 30.0219931,4.58943374 30.5000122,4.86534929 C30.9780313,5.14226308 31.5899596,4.97835088 31.8659665,4.49949166 C32.1419733,4.02173051 31.9780069,3.410903 31.4999878,3.13398921 Z" id="Shape"></path>
                <path d="M20,0 C19.4479728,0 19,0.447972838 19,1 C19,1.55202716 19.4479728,2 20,2 C20.5520272,2 21,1.55202716 21,1 C21,0.447972838 20.5520272,0 20,0 Z" id="Shape"></path>
                <path d="M20,25 C19.4479728,25 19,25.4479728 19,26 C19,26.5520272 19.4479728,27 20,27 C20.5520272,27 21,26.5520272 21,26 C21,25.4480727 20.5520272,25 20,25 Z" id="Shape"></path>
                <path d="M9.86598678,3.49984683 C9.58997693,3.02198586 8.97804194,2.85807366 8.50001766,3.13398921 C8.02199337,3.410903 7.85802515,4.02163069 8.134035,4.49949166 C8.41004484,4.97835088 9.02197983,5.14226308 9.50000412,4.86534929 C9.97792854,4.58943374 10.1419966,3.97860623 9.86598678,3.49984683 Z" id="Shape"></path>
                <path d="M20,4 C19.4477731,4 19,4.44767326 19,5 L19,9 C19,9.55232674 19.4477731,10 20,10 C20.5522269,10 21,9.55232674 21,9 L21,4.99990014 C21,4.44767326 20.5522269,4 20,4 Z" id="Shape"></path>
                <path d="M13.8659097,9.62765584 L11.8661447,6.45779846 C11.58995,6.02020503 10.9785474,5.86992503 10.5002494,6.12279739 C10.0219514,6.37539569 9.857992,6.93476616 10.1340868,7.37245095 L12.1339516,10.5423997 C12.3192796,10.8359253 12.6552865,11 13.0009791,11 C13.1704304,11 13.3424779,10.960443 13.4998469,10.8773094 C13.9780451,10.6247111 14.1420044,10.0652493 13.8659097,9.62765584 Z" id="Shape"></path>
                <path d="M30.4997627,6.12273986 C30.0211766,5.8700425 29.4099884,6.02005301 29.1339002,6.45775116 L27.1340836,9.62770531 C26.8579954,10.0652207 27.0219508,10.6246996 27.5002373,10.8773057 C27.6577024,10.9604418 27.8295461,11 27.9990931,11 C28.3447775,11 28.6807762,10.8358289 28.8660998,10.5423857 L30.8659164,7.37243157 C31.1420046,6.93482478 30.9780492,6.37525451 30.4997627,6.12273986 Z" id="Shape"></path>
                <path d="M39.9998732,25.8902754 C39.9997781,25.8787368 39.9991123,25.867292 39.9985417,25.8556596 C39.9979711,25.8436519 39.9972102,25.8316443 39.9962591,25.8195428 C39.9955934,25.8118505 39.9954983,25.8040642 39.9946423,25.7964657 C39.9935011,25.785959 39.9915989,25.7754523 39.9901723,25.7650394 C39.9884604,25.7533132 39.9864632,25.741587 39.9843708,25.729767 C39.982754,25.7209489 39.9817079,25.7120369 39.9798057,25.7033126 C39.9779036,25.6945883 39.9753357,25.6859578 39.9732434,25.6772335 C39.9702951,25.6652259 39.9670615,25.6532183 39.9636376,25.6412106 C39.9608795,25.6315482 39.9585019,25.6216982 39.9554585,25.6121296 C39.953271,25.6053753 39.9504178,25.5987148 39.9480402,25.5919605 C39.9435702,25.5792024 39.9388148,25.5665381 39.9338693,25.5538738 C39.9298748,25.5438362 39.9261657,25.5337047 39.9218859,25.5238547 C39.9196033,25.5186952 39.9168453,25.5136294 39.9144676,25.5084699 C39.9083808,25.4952427 39.9019135,25.482297 39.8952561,25.4692575 C39.8901203,25.4593136 39.8851748,25.4493698 39.8796586,25.4397074 C39.8787076,25.4380188 39.8780418,25.4363303 39.8770908,25.4346417 L34.1702279,15.4769306 C34.1673747,15.4719587 34.1637606,15.4677373 34.1608123,15.4628592 C34.1449296,15.4361234 34.1276202,15.4101381 34.1089793,15.3850909 C34.1041289,15.3785242 34.0994687,15.3718638 34.0945231,15.3653909 C34.0708416,15.3350904 34.0454482,15.3057279 34.0179624,15.2783355 C34.017582,15.2779603 34.0171065,15.277585 34.0166309,15.277116 C33.9905718,15.2512245 33.9623252,15.2271154 33.9330324,15.204132 C33.9257092,15.1984096 33.9182909,15.1930625 33.9108726,15.1876215 C33.8872862,15.1702667 33.8625585,15.1539438 33.8369749,15.1384652 C33.8287006,15.1334933 33.8206165,15.12824 33.8121521,15.1235495 C33.7797208,15.1053504 33.7462433,15.0883709 33.7110539,15.0737366 C33.7106735,15.0735489 33.7102931,15.0733613 33.7098175,15.0731737 C33.7097224,15.0730799 33.7095322,15.0730799 33.7094371,15.0729861 C33.6740575,15.0583518 33.6381073,15.0467194 33.6020619,15.0364941 C33.5919806,15.0336798 33.5818042,15.0315222 33.5716278,15.0289893 C33.5432861,15.0219536 33.5148493,15.016325 33.4863174,15.011916 C33.476141,15.010415 33.4661548,15.0087264 33.4558833,15.0075069 C33.4177456,15.0029102 33.3796079,15.0000021 33.3416604,15.0000021 C33.3415653,15.0000021 33.3414702,15.0000021 33.34128,15.0000021 L33.3410898,15.0000021 C33.339473,15.0000021 33.3379513,15.0000021 33.3363345,15.0000021 L20.0000317,15.0000021 L19.9975589,15.0000021 L6.66819894,15.0000021 C6.62872976,14.9999083 6.58926058,15.0029102 6.54960119,15.0076945 C6.54037586,15.0088202 6.53134075,15.010415 6.52221053,15.0118222 C6.49339327,15.0162312 6.46457602,15.0219536 6.43585387,15.0290831 C6.42520194,15.0317098 6.41464513,15.0341489 6.40418342,15.0371508 C6.3730836,15.0459689 6.34217401,15.0564756 6.31154973,15.068577 C6.30641398,15.0706408 6.30118312,15.072048 6.29604738,15.0742056 C6.29519142,15.0745808 6.29424035,15.0747685 6.29338439,15.0751437 C6.25895586,15.0895904 6.22623924,15.1062885 6.19456879,15.1242062 C6.18657985,15.128709 6.17906644,15.1337748 6.17126771,15.1384652 C6.14558896,15.15385 6.12086128,15.1702667 6.09717978,15.1878091 C6.08938105,15.1935315 6.08167742,15.1993477 6.0739738,15.2053516 C6.04753421,15.2260835 6.02223589,15.248035 5.99845928,15.271206 C5.99532076,15.2742079 5.99199204,15.2769283 5.98894863,15.2800241 C5.96165308,15.3073227 5.93625965,15.3363099 5.91276836,15.3665166 C5.90829836,15.372239 5.90430388,15.3783366 5.89992899,15.3841528 C5.88119302,15.4093876 5.86369343,15.4355605 5.84771554,15.4624839 C5.84486235,15.467362 5.8412483,15.4715835 5.83839511,15.4764616 L0.135336487,25.4135345 C0.135146274,25.4138159 0.135051167,25.4140036 0.134860954,25.414285 L0.123543286,25.4338912 C0.122592222,25.4355798 0.121926476,25.4373622 0.120880305,25.4390507 C0.114983705,25.4494636 0.109657744,25.4601579 0.104141569,25.4708522 C0.0972939043,25.4840794 0.0906364524,25.4973066 0.0844545328,25.510909 C0.0825524037,25.5150366 0.0804600616,25.5191642 0.0785579325,25.5232918 C0.0738977162,25.5338923 0.069903245,25.5447743 0.0656234545,25.5556562 C0.0604877059,25.5686019 0.0555421702,25.5815477 0.0509770603,25.5947748 C0.0489798248,25.6004034 0.0466972698,25.606032 0.0448902471,25.6116606 C0.0415615212,25.6219796 0.0390887533,25.6325801 0.0360453468,25.6430868 C0.0325264079,25.6554697 0.029007469,25.6678526 0.0260591689,25.6805169 C0.0242521462,25.6880217 0.0220646978,25.6954326 0.020447888,25.7029374 C0.0184506524,25.7124122 0.0172142685,25.7221684 0.0155023523,25.731737 C0.0133149038,25.7439322 0.0111274553,25.7561275 0.00941553913,25.7686042 C0.0081791552,25.7777975 0.00656234545,25.7869909 0.00561128089,25.7961842 C0.00466021634,25.8046271 0.00456510988,25.8131638 0.00380425823,25.8216067 C0.00275808722,25.8340834 0.00180702266,25.8464662 0.00133149038,25.8590367 C0.000951064558,25.8693558 0.000380425823,25.8796749 0.000285319367,25.8899939 C0.000285319367,25.8921515 0,25.8943092 0,25.8964668 C0,25.902283 0.000760851647,25.9080054 0.000855958102,25.9138216 C0.00104617101,25.9262045 0.00152170329,25.9385873 0.00218744848,25.951064 C0.00275808722,25.9612893 0.00332872595,25.9715145 0.00427979051,25.9817398 C0.00504064216,25.9904641 0.00608681317,25.9990008 0.00713298419,26.0076313 C0.00855958102,26.0194513 0.0102714972,26.0311775 0.0121736263,26.0429975 C0.0136953296,26.0522847 0.0151219265,26.0615719 0.0169289491,26.0707652 C0.0187359718,26.0803338 0.0206381009,26.0898086 0.0228255494,26.0992833 C0.0253934237,26.1106343 0.0283417238,26.1217977 0.031290024,26.1330548 C0.0334774725,26.1414039 0.0357600274,26.149753 0.0381376888,26.158102 C0.0410859889,26.1681397 0.044034289,26.1780835 0.0472679085,26.1880273 C0.0507868474,26.1987216 0.0547813186,26.2092283 0.0586806832,26.219735 C0.0617240898,26.2278964 0.0648626029,26.2360579 0.0680962224,26.2442193 C0.0720906935,26.2539755 0.0759900582,26.2637317 0.0802698487,26.2733941 C0.0845496392,26.2831503 0.089304962,26.2927189 0.0939651784,26.3022875 C0.0982449689,26.3110118 0.102619866,26.3196423 0.107089869,26.3282728 C0.111940299,26.3373723 0.116695621,26.3464719 0.12183137,26.3554776 C0.126681799,26.3640143 0.131722441,26.3723634 0.13685819,26.3808062 C0.142564577,26.3901872 0.148556284,26.3994744 0.154643097,26.4086677 C0.160254378,26.4172044 0.166055872,26.4255535 0.171952472,26.4339025 C0.177183327,26.4412197 0.182319076,26.4485368 0.18783525,26.455854 C0.194873128,26.465235 0.202101219,26.4743345 0.209519522,26.4835278 C0.216272081,26.4917831 0.223309958,26.4997569 0.23025273,26.5078246 C0.234247201,26.5124212 0.237575927,26.5172993 0.241760611,26.521896 L19.4086598,47.686488 C19.4321511,47.7124733 19.4572592,47.7369576 19.4833183,47.759941 C19.4871226,47.7632243 19.4912122,47.7660386 19.4950164,47.769322 C19.5225022,47.7928682 19.5513194,47.8145382 19.5810878,47.8347073 C19.5907886,47.841274 19.6006797,47.8474654 19.6105708,47.8536569 C19.6383419,47.8709179 19.6668738,47.8866779 19.6961666,47.9011246 C19.7042506,47.9050646 19.7119542,47.9094736 19.7201334,47.913226 C19.7571298,47.930018 19.7950773,47.9443709 19.8340709,47.9564723 C19.8433914,47.9593804 19.852902,47.9614442 19.8623176,47.9639771 C19.8936076,47.9726076 19.9253731,47.9796433 19.9575191,47.9851781 C19.9693123,47.9871481 19.9810104,47.9892119 19.9928987,47.9908067 C20.0344602,47.9962476 20.076212,48 20.1187246,48 C20.1197707,48 20.1207218,48 20.1216729,48 C20.1642806,47.9999062 20.2062225,47.9959662 20.2478791,47.9903376 C20.2597674,47.9887428 20.2713704,47.986679 20.2832587,47.9846152 C20.3154998,47.9789866 20.3474556,47.9718571 20.3788407,47.963039 C20.3882563,47.9604123 20.3977669,47.9583485 20.4070873,47.9553466 C20.446081,47.9431513 20.4841236,47.928517 20.5212151,47.9114437 C20.5292991,47.9076913 20.5370028,47.9032822 20.5449917,47.8993422 C20.5743796,47.8848017 20.6030066,47.8687602 20.6307777,47.8512178 C20.6407639,47.8449326 20.6505599,47.8386473 20.6603558,47.8319868 C20.6898388,47.8118178 20.7183708,47.7901477 20.7455712,47.7666953 C20.7496608,47.7631305 20.7541308,47.7600348 20.7582204,47.75647 C20.7842795,47.7331114 20.8093876,47.7084395 20.832974,47.682079 L39.7620119,26.5183312 C39.7654358,26.514485 39.7681939,26.5103574 39.7715226,26.5065112 C39.7777996,26.4992879 39.7840766,26.4919707 39.7901635,26.4845597 C39.7983426,26.4745221 39.8061413,26.4643907 39.813845,26.4540716 C39.8191709,26.4469421 39.8244018,26.4398125 39.8295375,26.4325892 C39.8348635,26.4250844 39.8399992,26.417392 39.845135,26.4096996 C39.8517924,26.399662 39.8580695,26.3895305 39.8643465,26.3793053 C39.8694822,26.3708624 39.874618,26.3626072 39.8794684,26.3540705 C39.8840335,26.345909 39.8883133,26.3376538 39.8926882,26.3293047 C39.8975386,26.3200176 39.9021989,26.3105428 39.906764,26.301068 C39.9115193,26.2913118 39.9163697,26.2816494 39.9207446,26.2717994 C39.924644,26.2629813 39.9280678,26.2540693 39.9316819,26.2451574 C39.9352008,26.2364331 39.9385295,26.227615 39.9417631,26.2187031 C39.9457576,26.207915 39.9499423,26.1971269 39.9535563,26.1862449 C39.9565046,26.1772392 39.9589774,26.1681397 39.9617355,26.1590401 C39.9643985,26.1500344 39.966681,26.1409349 39.9690587,26.1318353 C39.972007,26.1203905 39.9752406,26.1090396 39.9777134,26.0974072 C39.9796155,26.0888705 39.9812323,26.08024 39.9828491,26.0715157 C39.9847513,26.061478 39.986273,26.0513466 39.9878898,26.0412151 C39.9896968,26.0293951 39.9915989,26.0176689 39.9930255,26.0057551 C39.9939766,25.9980627 39.9948325,25.9902765 39.9954983,25.9824903 C39.9965445,25.9712331 39.99702,25.959976 39.9976857,25.9485312 C39.9983515,25.9364297 39.9989221,25.9243283 39.9991123,25.9123206 C39.9992074,25.9072549 39.9998732,25.902283 39.9998732,25.8972173 C40.0001585,25.8944968 39.9998732,25.892433 39.9998732,25.8902754 Z M31.9093572,16.8784474 L28.8214408,24.1466346 L22.1476306,16.8784474 L31.9093572,16.8784474 Z M17.8675547,16.8784474 L11.2541371,24.1567661 L8.10811068,16.8784474 L17.8675547,16.8784474 Z M6.54627246,18.055759 L9.52947666,24.9572442 L2.58584943,24.9572442 L6.54627246,18.055759 Z M3.08021278,26.8360647 L10.3414005,26.8360647 L16.9723177,42.1755439 L3.08021278,26.8360647 Z M20.1114965,44.6477107 L12.4120582,26.8360647 L16.1905426,26.8360647 C16.7164813,26.8360647 17.1429387,26.4155158 17.1429387,25.8966544 C17.1429387,25.377793 16.7164813,24.9572442 16.1905426,24.9572442 L13.0847462,24.9572442 L20.003836,17.3423363 L26.9959675,24.9572442 L23.809711,24.9572442 C23.2837723,24.9572442 22.857315,25.377793 22.857315,25.8966544 C22.857315,26.4155158 23.2837723,26.8360647 23.809711,26.8360647 L27.6789269,26.8360647 L20.1114965,44.6477107 Z M23.235268,42.1564067 L29.7441636,26.8360647 L36.9376355,26.8360647 L23.235268,42.1564067 Z M30.5422019,24.9572442 L33.4683422,18.0699243 L37.4154504,24.9572442 L30.5422019,24.9572442 Z" id="Shape"></path>
            </g>
        </g>
    </g>
</svg>