<?xml version="1.0" encoding="UTF-8"?>
<svg width="18px" height="18px" viewBox="0 0 18 18" version="1.1" xmlns="http://www.w3.org/2000/svg" xmlns:xlink="http://www.w3.org/1999/xlink">
    <!-- Generator: Sketch 46.2 (44496) - http://www.bohemiancoding.com/sketch -->
    <title>phone-call</title>
    <desc>Created with Sketch.</desc>
    <defs></defs>
    <g id="Page-1" stroke="none" stroke-width="1" fill="none" fill-rule="evenodd">
        <g id="Artboard-Copy-4" transform="translate(-118.000000, -4827.000000)" fill-rule="nonzero" fill="#000000">
            <g id="Group-10" transform="translate(94.000000, 4795.000000)">
                <g id="phone-call" transform="translate(24.000000, 32.000000)">
                    <path d="M14.4659759,18 C13.7171032,18 12.8126441,17.8123099 11.8185867,17.4375351 C9.63735114,16.6147258 7.26541634,14.9896926 5.13806083,12.8621342 C3.01070533,10.7345759 1.38582707,8.36180946 0.563096245,6.17976042 C-0.185776482,4.19690508 -0.187592665,2.56945008 0.557042302,1.82474411 C0.664802484,1.71697365 0.774378849,1.60193777 0.886982185,1.48387463 C1.56683996,0.769441258 2.35324714,-0.0424698868 3.3527531,0.00172810992 C4.05501046,0.0307898064 4.73486824,0.466715253 5.43228245,1.33251163 C7.48820144,3.89054637 6.56134279,4.80235709 5.48858412,5.8594763 L5.29849032,6.04716643 C5.12292598,6.22274751 4.79056452,7.03526411 7.87746996,10.1218585 C8.88605683,11.129936 9.74450592,11.8673766 10.4304176,12.3135947 C10.8632746,12.5945245 11.6357577,13.0183409 11.9523789,12.7016895 L12.1430781,12.5091557 C13.1988857,11.4375057 14.1106095,10.5135859 16.6677949,12.5690955 C17.5341142,13.2653653 17.9693926,13.9452879 17.9984516,14.6482177 C18.0402238,15.666588 17.2289954,16.4367229 16.5134194,17.1160401 C16.3959729,17.2280487 16.280948,17.3364246 16.1743986,17.4429842 C15.8026865,17.8141262 15.2118217,18 14.4659759,18 Z M3.28071118,0.604758312 C2.5578704,0.604758312 1.90404458,1.29255179 1.32589304,1.90042561 C1.20905194,2.02272692 1.09584321,2.14200096 0.985056059,2.25279868 C0.430514897,2.80678727 0.487421959,4.26471571 1.1291399,5.96664131 C1.92220641,8.06937614 3.49804772,10.3664611 5.56607459,12.4346851 C7.63410146,14.5029092 9.93036197,16.0782953 12.0322909,16.8714375 C13.7340542,17.513822 15.1918437,17.5695236 15.7463848,17.0143241 C15.857172,16.9041319 15.9752239,16.7915178 16.0963027,16.6764819 C16.7186481,16.0849553 17.4239324,15.4153254 17.3936627,14.6718303 C17.3724739,14.1614343 17.0007618,13.6122893 16.2882127,13.0401371 C14.1572248,11.3279189 13.5621223,11.9333709 12.5741188,12.9335776 L12.3803926,13.1291386 C11.9100013,13.6019966 11.1429667,13.4984643 10.1004778,12.8203581 C9.38005857,12.3517382 8.4877074,11.5870523 7.4494562,10.5493076 L7.4494562,10.5493076 C4.88803299,7.98764012 4.06832914,6.42073032 4.87047656,5.61790095 L5.06359734,5.42657812 C6.06734106,4.43848044 6.67273534,3.84211021 4.96007491,1.71091913 C4.38737192,0.999513022 3.83827931,0.627765488 3.32793193,0.605969216 C3.31219168,0.605363764 3.29584603,0.604758312 3.28071118,0.604758312 Z" id="Shape"></path>
                    <g id="Group" transform="translate(9.000000, 0.000000)">
                        <path d="M5.442,7.374 C5.4042,7.374 5.3664,7.3668 5.3292,7.3518 C5.1756,7.2894 5.1012,7.1148 5.1642,6.9618 C5.5458,6.021 5.3274,4.9488 4.6098,4.2306 C3.8724,3.4932 2.739,3.2886 1.788,3.7158 C1.6386,3.7836 1.4592,3.7176 1.3914,3.5664 C1.323,3.4152 1.3896,3.2376 1.5408,3.1698 C2.7174,2.637 4.1208,2.8932 5.034,3.807 C5.9226,4.6956 6.192,6.0222 5.7198,7.1874 C5.673,7.3026 5.5602,7.374 5.442,7.374 Z" id="Shape"></path>
                        <path d="M8.1204,8.4612 C8.0826,8.4612 8.0448,8.454 8.0076,8.439 C7.8534,8.3766 7.7796,8.202 7.8426,8.049 C8.6616,6.0288 8.1954,3.7278 6.654,2.1864 C5.0712,0.6036 2.637,0.1596 0.597,1.0818 C0.4458,1.1478 0.2682,1.083 0.1998,0.9318 C0.132,0.78 0.1986,0.6024 0.3498,0.534 C2.616,-0.4896 5.3196,0.003 7.0782,1.7616 C8.7906,3.474 9.309,6.03 8.3982,8.274 C8.3514,8.3904 8.2386,8.4612 8.1204,8.4612 Z" id="Shape"></path>
                    </g>
                </g>
            </g>
        </g>
    </g>
</svg>