<?xml version="1.0" encoding="UTF-8"?>
<svg width="16px" height="16px" viewBox="0 0 16 16" version="1.1" xmlns="http://www.w3.org/2000/svg" xmlns:xlink="http://www.w3.org/1999/xlink">
    <!-- Generator: Sketch 46.2 (44496) - http://www.bohemiancoding.com/sketch -->
    <title>instagram</title>
    <desc>Created with Sketch.</desc>
    <defs></defs>
    <g id="Page-1" stroke="none" stroke-width="1" fill="none" fill-rule="evenodd">
        <g id="Artboard-Copy-4" transform="translate(-622.000000, -5084.000000)" fill-rule="nonzero" fill="#FFFFFF">
            <g id="Group-17" transform="translate(619.000000, 5015.000000)">
                <g id="instagram" transform="translate(3.000000, 69.000000)">
                    <path d="M10.7937499,0 L4.90624994,0 C2.19701872,0 0,2.19701872 0,4.90624994 L0,10.7937499 C0,13.5029811 2.19701872,15.6999998 4.90624994,15.6999998 L10.7937499,15.6999998 C13.5029811,15.6999998 15.6999998,13.5029811 15.6999998,10.7937499 L15.6999998,4.90624994 C15.6999998,2.19701872 13.5029811,0 10.7937499,0 Z M14.2281248,10.7937499 C14.2281248,12.6875623 12.6875623,14.2281248 10.7937499,14.2281248 L4.90624994,14.2281248 C3.01243746,14.2281248 1.47187498,12.6875623 1.47187498,10.7937499 L1.47187498,4.90624994 C1.47187498,3.01243746 3.01243746,1.47187498 4.90624994,1.47187498 L10.7937499,1.47187498 C12.6875623,1.47187498 14.2281248,3.01243746 14.2281248,4.90624994 L14.2281248,10.7937499 Z" id="Shape"></path>
                    <path d="M7.57931025,3.78965513 C5.48647321,3.78965513 3.78965513,5.48647321 3.78965513,7.57931025 C3.78965513,9.6721473 5.48647321,11.3689654 7.57931025,11.3689654 C9.6721473,11.3689654 11.3689654,9.6721473 11.3689654,7.57931025 C11.3689654,5.48647321 9.6721473,3.78965513 7.57931025,3.78965513 Z M7.57931025,9.94784471 C6.27377406,9.94784471 5.2107758,8.88484644 5.2107758,7.57931025 C5.2107758,6.27282665 6.27377406,5.2107758 7.57931025,5.2107758 C8.88484644,5.2107758 9.94784471,6.27282665 9.94784471,7.57931025 C9.94784471,8.88484644 8.88484644,9.94784471 7.57931025,9.94784471 Z" id="Shape"></path>
                    <circle id="Oval" cx="11.9103447" cy="3.78965513" r="1"></circle>
                </g>
            </g>
        </g>
    </g>
</svg>