<?xml version="1.0" encoding="UTF-8"?>
<svg width="192px" height="45px" viewBox="0 0 192 45" version="1.1" xmlns="http://www.w3.org/2000/svg" xmlns:xlink="http://www.w3.org/1999/xlink">
    <!-- Generator: Sketch 46.2 (44496) - http://www.bohemiancoding.com/sketch -->
    <title>brand_myft</title>
    <desc>Created with Sketch.</desc>
    <defs></defs>
    <g id="Page-1" stroke="none" stroke-width="1" fill="none" fill-rule="evenodd">
        <g id="brand_myft" fill-rule="nonzero" fill="#FFFFFF">
            <path d="M115.824321,9.73125 C115.902722,9.19145687 116.044959,8.66278659 116.248069,8.15625 C116.433645,7.65087588 116.695619,7.17666454 117.024939,6.75 C117.349199,6.36542359 117.74791,6.04977739 118.197307,5.821875 C118.687092,5.57418518 119.230001,5.44870962 119.779298,5.45625 C120.324079,5.44873171 120.862407,5.57426939 121.347164,5.821875 C121.798962,6.04604174 122.198387,6.362253 122.519532,6.75 C122.849274,7.17186726 123.102607,7.6477433 123.268153,8.15625 C123.440709,8.66912034 123.535911,9.20463352 123.550651,9.7453125 L115.824321,9.73125 Z M123.8049,6.384375 C123.388578,5.7586287 122.826438,5.24239459 122.166409,4.8796875 C121.416221,4.47887408 120.573874,4.28012498 119.722798,4.303125 C118.886101,4.28397831 118.057242,4.46735513 117.307438,4.8375 C116.65156,5.17379513 116.081487,5.65477305 115.640697,6.24375 C115.20075,6.85056078 114.875292,7.5319552 114.680203,8.2546875 C114.48335,9.00725214 114.39302,9.78349806 114.41183,10.5609375 C114.405216,11.3635784 114.509783,12.163295 114.722578,12.9375 C114.912153,13.657925 115.238155,14.335686 115.683072,14.934375 C116.10564,15.5401083 116.680321,16.0249739 117.349812,16.340625 C118.107547,16.6833255 118.933131,16.851558 119.765173,16.8328125 C121.025043,16.9149206 122.270013,16.5235093 123.254028,15.7359375 C124.130755,14.9033559 124.719319,13.8151387 124.934893,12.628125 L123.522401,12.628125 C123.335497,13.4658168 122.902869,14.2293575 122.279409,14.821875 C121.587009,15.4020482 120.696624,15.6941739 119.793423,15.6375 C119.17773,15.6551602 118.568386,15.5095639 118.027808,15.215625 C117.553457,14.9343306 117.140435,14.5613849 116.813066,14.11875 C116.485341,13.6654933 116.245795,13.1551302 116.10682,12.6140625 C115.941126,12.0705806 115.846184,11.5081732 115.824321,10.940625 L125.005518,10.940625 C125.029795,10.1235564 124.953902,9.3065891 124.779519,8.5078125 C124.613496,7.74780155 124.30176,7.02681501 123.861399,6.384375 L123.8049,6.384375 Z M186.80203,10.6875 C186.573509,10.5269319 186.320821,10.4035194 186.05341,10.321875 C185.789688,10.2274123 185.520901,10.147602 185.24829,10.0828125 L184.457294,9.9140625 C184.237387,9.87136861 184.02038,9.81500835 183.807548,9.7453125 C183.651399,9.70224688 183.506713,9.62542196 183.3838,9.5203125 C183.305534,9.45303853 183.259381,9.35603324 183.256676,9.253125 C183.230593,9.18521012 183.230593,9.11010238 183.256676,9.0421875 C183.304093,8.97975009 183.367521,8.93117493 183.4403,8.9015625 C183.538521,8.88555595 183.638703,8.88555595 183.736923,8.9015625 C184.111357,8.83556624 184.497169,8.88973525 184.838667,9.05625 C185.037241,9.18032808 185.155356,9.39947976 185.149415,9.6328125 L185.149415,9.8015625 L187.310527,9.8015625 L187.310527,9.534375 C187.287799,9.1361226 187.166489,8.74964851 186.957405,8.409375 C186.772515,8.11247545 186.521126,7.86219724 186.222909,7.678125 C185.913934,7.50371991 185.580747,7.37577287 185.234165,7.2984375 C184.496951,7.157875 183.739641,7.157875 183.002428,7.2984375 C182.650236,7.36464756 182.311409,7.48817697 181.999559,7.6640625 C181.691866,7.83457567 181.433911,8.08169968 181.250938,8.38125 C181.053757,8.74329623 180.956293,9.15083407 180.96844,9.5625 C180.959621,9.85781395 181.032944,10.1498103 181.180313,10.40625 C181.314249,10.640075 181.503308,10.8379517 181.731185,10.9828125 C181.952584,11.1312841 182.195527,11.2451048 182.451556,11.3203125 C182.718854,11.4148072 182.992645,11.490002 183.270801,11.5453125 C183.793912,11.6472776 184.308571,11.788301 184.810417,11.9671875 C185.24829,12.1359375 185.24829,12.346875 185.24829,12.4171875 C185.254459,12.5267309 185.224717,12.635305 185.16354,12.7265625 C185.102633,12.8107769 185.025879,12.8824152 184.937541,12.9375 C184.825632,12.9942661 184.706992,13.0367876 184.584418,13.0640625 C184.300755,13.1275781 184.006462,13.1275781 183.722798,13.0640625 C183.581374,13.0262577 183.447574,12.9644106 183.327301,12.88125 C183.088791,12.7212861 182.949975,12.4501971 182.960053,12.1640625 L182.960053,11.9671875 L180.798941,11.9671875 L180.798941,12.15 C180.806837,12.5815876 180.928619,13.0035155 181.152064,13.3734375 C181.346996,13.6917291 181.612794,13.9611633 181.928934,14.1609375 C182.25776,14.365896 182.621644,14.5088996 183.002428,14.5828125 C183.392209,14.6673214 183.790004,14.709754 184.188921,14.709375 C184.587045,14.7081442 184.984213,14.6704858 185.375414,14.596875 C185.750265,14.5179081 186.108637,14.375193 186.434783,14.175 C186.746753,13.9747241 187.007837,13.7051668 187.197528,13.3875 C187.404539,13.0185393 187.50706,12.6005497 187.494151,12.178125 C187.504982,11.8692023 187.431778,11.5631048 187.282278,11.2921875 C187.150449,11.0536088 186.967136,10.847092 186.745531,10.6875 L186.80203,10.6875 Z M111.445597,1.096875 L110.033105,1.096875 L110.033105,4.640625 L107.928493,4.640625 L107.928493,5.8640625 L110.004855,5.8640625 L110.004855,13.9359375 C109.907894,14.6703354 110.105846,15.4131665 110.555727,16.003125 C111.129507,16.4467285 111.852885,16.6532142 112.57559,16.5796875 L113.211212,16.5796875 L113.860958,16.5796875 L113.860958,15.3703125 C113.446895,15.3913087 113.032028,15.3913087 112.617965,15.3703125 C112.095343,15.3703125 111.77047,15.1875 111.643346,14.9203125 C111.497038,14.5687317 111.429552,14.1896002 111.445597,13.809375 L111.445597,5.8640625 L113.860958,5.8640625 L113.860958,4.640625 L111.445597,4.640625 L111.445597,1.096875 Z M122.364158,1.40625 L128.014125,1.40625 L128.014125,16.453125 L129.581991,16.453125 L129.581991,1.40625 L135.231958,1.40625 L135.231958,0.1125 L122.237034,0.1125 L122.364158,1.40625 Z M161.024056,5.5265625 C160.662246,5.11633431 160.199976,4.80628681 159.682189,4.6265625 C159.014918,4.3965835 158.311766,4.28705264 157.605827,4.303125 C156.783952,4.3010135 155.977449,4.52486319 155.275215,4.95 C154.626993,5.35718915 154.130803,5.9648051 153.862723,6.6796875 L153.862723,6.6796875 L153.862723,4.640625 L152.450232,4.640625 L152.450232,16.453125 L153.862723,16.453125 L153.862723,9.5625 C153.87367,9.01685558 153.968953,8.47614359 154.145222,7.959375 C154.306342,7.49030684 154.555603,7.05602777 154.879718,6.6796875 C155.201791,6.31679174 155.596246,6.02465189 156.037961,5.821875 C156.528407,5.61159118 157.057744,5.50619165 157.591702,5.5125 C158.077253,5.5052973 158.558774,5.60117588 159.004193,5.79375 C159.37785,5.95885205 159.699895,6.2211793 159.936438,6.553125 C160.177428,6.88853679 160.341383,7.27260694 160.416685,7.678125 C160.509175,8.14124824 160.556478,8.61218864 160.557934,9.084375 L160.557934,16.453125 L161.970426,16.453125 L161.970426,8.859375 C161.956042,8.24322255 161.875543,7.630366 161.730302,7.03125 C161.605213,6.51239678 161.358337,6.03046539 161.009932,5.625 L161.024056,5.5265625 Z M180.304569,4.9359375 L180.459943,4.66875 L178.482454,4.66875 L178.482454,4.753125 C178.176733,5.19471965 177.916462,5.66584722 177.705584,6.159375 C177.477915,6.66806394 177.293641,7.19492233 177.154712,7.734375 C177.013294,8.2718855 176.900141,8.81637555 176.815714,9.365625 C176.744471,9.88298733 176.706727,10.4043761 176.702715,10.9265625 C176.702188,11.9797986 176.859286,13.0272354 177.168837,14.034375 C177.481929,15.0446143 177.918354,16.0127867 178.468329,16.9171875 L178.468329,17.015625 L180.431693,17.015625 L180.290444,16.734375 C179.80695,15.8245657 179.44601,14.8552815 179.21695,13.8515625 C179.0027,12.8483372 178.893823,11.8256493 178.892077,10.8 C178.891593,9.78740524 179.005304,8.77795752 179.231075,7.790625 C179.460804,6.8095009 179.821864,5.86354327 180.304569,4.978125 L180.304569,4.9359375 Z M105.230633,2.4328125 L106.643125,2.4328125 L106.643125,0.1125 L105.230633,0.1125 L105.230633,2.4328125 Z M172.648863,12.15 C172.498539,12.6894831 172.254755,13.1986919 171.928493,13.6546875 C171.609052,14.088051 171.199549,14.4477809 170.727875,14.709375 C170.221122,14.9823893 169.651254,15.1181652 169.075259,15.103125 C168.467404,15.1211843 167.864851,14.9857253 167.32377,14.709375 C166.848007,14.4479861 166.433845,14.088394 166.109027,13.6546875 C165.78159,13.2012627 165.54207,12.6909557 165.402781,12.15 C165.244926,11.5868216 165.164156,11.0050056 165.162657,10.4203125 C165.15848,9.81304767 165.234463,9.20786848 165.388656,8.6203125 C165.515185,8.05143875 165.750136,7.51200632 166.080777,7.03125 C166.405212,6.57711 166.824405,6.19814595 167.309645,5.9203125 C167.849726,5.62509237 168.459424,5.47941133 169.075259,5.4984375 C169.687936,5.48345545 170.293233,5.63411097 170.826749,5.934375 C171.307584,6.22082374 171.714021,6.61583046 172.013242,7.0875 C172.32949,7.56926747 172.558925,8.10225168 172.691238,8.6625 C172.820499,9.23488671 172.886806,9.81957902 172.888987,10.40625 C172.887489,10.9909431 172.806718,11.5727591 172.648863,12.1359375 L172.648863,12.15 Z M172.888987,6.665625 L172.888987,6.665625 C172.742937,6.34128352 172.552828,6.03845297 172.32399,5.765625 C172.071011,5.47643555 171.781383,5.22117627 171.46237,5.00625 C171.137844,4.78024705 170.780621,4.60479588 170.403002,4.4859375 C169.996062,4.36028111 169.571923,4.29860193 169.145884,4.303125 C168.358088,4.28781805 167.576654,4.4462956 166.857647,4.7671875 C166.209565,5.07167592 165.635956,5.51317869 165.176782,6.0609375 C164.713216,6.62155686 164.363066,7.26623344 164.145663,7.959375 C163.90505,8.69959357 163.785815,9.47357621 163.79254,10.2515625 C163.762025,11.0595126 163.838005,11.86796 164.018539,12.65625 C164.197356,13.3564733 164.519545,14.012368 164.964908,14.5828125 C165.408836,15.1402939 165.980335,15.5839002 166.631649,15.8765625 C167.402255,16.208768 168.235688,16.3718404 169.075259,16.3546875 C169.89,16.3724275 170.689972,16.1364463 171.363496,15.6796875 C172.011572,15.241504 172.524953,14.6330368 172.846612,13.921875 L172.846612,13.921875 L172.846612,15.46875 C172.923958,16.6334449 172.610986,17.790776 171.956742,18.759375 C171.218628,19.5803188 170.13545,20.0075079 169.032885,19.9125 C168.638636,19.9128572 168.245524,19.8704189 167.860516,19.7859375 C167.492766,19.7054491 167.140034,19.5678271 166.815273,19.378125 C166.49965,19.1975077 166.225416,18.9532252 166.010152,18.6609375 C165.770335,18.3330888 165.615117,17.9515894 165.558155,17.55 L164.145663,17.55 C164.181556,18.1240422 164.361225,18.6800052 164.668285,19.1671875 C164.963766,19.611284 165.34853,19.989559 165.798279,20.278125 C166.270173,20.567642 166.785002,20.7812062 167.32377,20.9109375 C167.89679,21.0520123 168.484979,21.1228497 169.075259,21.121875 C169.907501,21.1460075 170.736763,21.0123848 171.51887,20.728125 C172.150935,20.5031391 172.711543,20.114874 173.143235,19.603125 C173.576306,19.0888354 173.885518,18.4827636 174.04723,17.83125 C174.248689,17.0601701 174.343728,16.2653664 174.329729,15.46875 L174.329729,4.640625 L172.917237,4.640625 L172.888987,6.665625 Z M148.467005,2.446875 L149.879497,2.446875 L149.879497,0.1125 L148.467005,0.1125 L148.467005,2.446875 Z M145.175899,5.540625 C144.792728,5.12221546 144.305523,4.81178195 143.763408,4.640625 C143.096738,4.40825187 142.393146,4.29865251 141.687045,4.3171875 C140.869867,4.31693551 140.068402,4.54074313 139.370558,4.9640625 C138.718759,5.36722214 138.221454,5.97620381 137.958067,6.69375 L137.958067,6.69375 L137.958067,0.1125 L136.545575,0.1125 L136.545575,16.453125 L137.958067,16.453125 L137.958067,9.5625 C137.966752,9.01542528 138.067001,8.47362113 138.25469,7.959375 C138.404753,7.48541339 138.655223,7.04902792 138.989186,6.6796875 C139.302998,6.31393235 139.693539,6.02112092 140.133304,5.821875 C140.624122,5.61278194 141.153204,5.50743321 141.687045,5.5125 C142.172716,5.5039866 142.654513,5.59992021 143.099537,5.79375 C143.473193,5.95885205 143.795239,6.2211793 144.031781,6.553125 C144.278401,6.88536286 144.442928,7.27077465 144.512028,7.678125 C144.61147,8.14019031 144.658846,8.61185499 144.653277,9.084375 L144.653277,16.453125 L146.065769,16.453125 L146.065769,8.859375 C146.076675,8.24494384 146.015044,7.63136423 145.882145,7.03125 C145.756379,6.51543075 145.514927,6.03465955 145.175899,5.625 L145.175899,5.540625 Z M148.467005,16.5515625 L149.879497,16.5515625 L149.879497,4.640625 L148.467005,4.640625 L148.467005,16.5515625 Z M72.192452,11.98125 C72.200108,12.5144216 72.0891649,13.0426741 71.8675789,13.528125 C71.6562994,13.9787419 71.3476078,14.3773072 70.9635842,14.6953125 C70.575888,15.0301692 70.1242891,15.2836689 69.635842,15.440625 C69.1253447,15.6065504 68.5908101,15.6873266 68.0538512,15.6796875 C67.7178286,15.6845298 67.3834424,15.6322156 67.065107,15.525 C66.7560642,15.424165 66.4686433,15.266782 66.217612,15.0609375 C65.9784384,14.8535962 65.7776474,14.6060963 65.6243655,14.3296875 C65.4770525,14.0226879 65.4044669,13.6854517 65.4124917,13.3453125 C65.3880882,12.8462927 65.5781276,12.36051 65.9351137,12.009375 C66.3189861,11.6585067 66.7777794,11.3988713 67.2769808,11.25 C67.8578996,11.0717372 68.4534406,10.9446852 69.0567204,10.8703125 L70.9635842,10.5890625 L71.6557051,10.434375 C71.8715916,10.3775769 72.0581395,10.242049 72.1783271,10.0546875 L72.1783271,10.0546875 L72.192452,11.98125 Z M73.6049437,14.4703125 L73.6049437,8.1 C73.6273785,7.43576231 73.4918651,6.77564463 73.209446,6.1734375 C72.977508,5.707625 72.6328814,5.30653192 72.2065769,5.00625 C71.7753567,4.73509204 71.2958417,4.54890759 70.7940852,4.4578125 C70.2774217,4.35789228 69.7525321,4.30610606 69.2262194,4.303125 C68.5931538,4.30177885 67.9622879,4.37733711 67.3476054,4.528125 C66.8356437,4.67657837 66.3564255,4.91989967 65.9351137,5.2453125 C65.5054354,5.57121729 65.1613538,5.99580008 64.9322445,6.4828125 C64.6712827,7.04420277 64.5225604,7.65079206 64.4943721,8.26875 L65.9068638,8.26875 C65.8629369,7.46507659 66.2034032,6.68807192 66.8249834,6.1734375 C67.4840543,5.7101323 68.278923,5.47767141 69.0849702,5.5125 C69.4878023,5.5131063 69.8897165,5.55076637 70.2855882,5.625 C70.6400824,5.67429318 70.9784093,5.80421404 71.2743324,6.0046875 C71.5611427,6.1804159 71.7914903,6.43414238 71.9382035,6.7359375 C72.1070929,7.11642275 72.1891039,7.52946877 72.1783271,7.9453125 C72.183949,8.20995711 72.1359084,8.4730128 72.0370779,8.71875 C71.9644767,8.90671897 71.8425256,9.07183952 71.683955,9.196875 C71.5078412,9.31231534 71.311325,9.39343762 71.1048334,9.4359375 C70.8788347,9.4359375 70.6104613,9.5203125 70.2997131,9.5484375 L68.0538512,9.84375 C67.3508403,9.92518257 66.661987,10.1001822 66.0057382,10.3640625 C65.4524897,10.5903339 64.9663408,10.9533344 64.5932465,11.41875 C64.2028819,11.9889333 64.0095197,12.6701147 64.0423748,13.359375 C64.0343299,13.8911298 64.1402681,14.4184799 64.3531229,14.90625 C64.5512686,15.3254026 64.8465799,15.6917056 65.2147429,15.975 C65.5858836,16.2662292 66.0140835,16.476988 66.4718605,16.59375 C66.9790687,16.7258626 67.5013237,16.7920377 68.0256014,16.790625 C68.5336425,16.7960804 69.0406676,16.7441866 69.5369676,16.6359375 C69.9292955,16.535158 70.3050775,16.3788795 70.652836,16.171875 C70.9909921,15.9713671 71.2959343,15.7199528 71.5568307,15.4265625 C71.8451086,15.1088559 72.109489,14.7704403 72.3478261,14.4140625 L72.3478261,14.4140625 C72.3318697,14.6903969 72.3318697,14.9674156 72.3478261,15.24375 C72.3845397,15.4729513 72.466126,15.6927385 72.5879497,15.890625 C72.7136079,16.0854395 72.8959121,16.2375059 73.1105716,16.3265625 C73.3947075,16.4324266 73.6973442,16.4802519 74.0004414,16.4671875 L74.4948135,16.4671875 L74.9326859,16.4671875 L74.9326859,15.2578125 C74.7895387,15.3168769 74.6356045,15.345612 74.4806886,15.3421875 C73.9156919,15.3421875 73.6331936,15.0609375 73.6331936,14.4703125 L73.6049437,14.4703125 Z M53.3921872,16.453125 L54.960053,16.453125 L54.960053,8.6765625 L62.813507,8.6765625 L62.813507,7.3546875 L54.960053,7.3546875 L54.960053,1.40625 L63.8163761,1.40625 L63.8163761,0.1125 L53.3921872,0.1125 L53.3921872,16.453125 Z M49.2959612,28.603125 L43.6459943,12.8109375 L37.9960274,12.8109375 L46.6122269,34.453125 L45.058486,38.3625 C44.7796836,38.9095074 44.3844202,39.3894059 43.9002428,39.76875 C43.5312961,40.0197087 43.1027266,40.1700149 42.6572501,40.2046875 L37.8406533,40.2046875 L37.8406533,45 L42.6431251,45 C43.5150478,44.9982445 44.3800626,44.8459895 45.1997352,44.55 C45.9531892,44.2687899 46.6441471,43.8436266 47.2337232,43.2984375 C47.8861881,42.666088 48.4343799,41.9352315 48.8580887,41.1328125 C49.4037441,40.132223 49.8758123,39.0935626 50.2705804,38.025 L58.0110351,18.05625 L52.9260649,18.05625 L49.2959612,28.603125 Z M29.6623262,0 L17.9103951,27.1125 L6.18671375,0 L0,0 L0,35.015625 L5.4098433,35.015625 L5.4098433,12.515625 L15.1701611,35.0859375 L20.5800044,35.0859375 L30.4674465,12.5859375 L30.4674465,35.0859375 L35.8631649,35.0859375 L35.8631649,0.0703125 L29.6623262,0.0703125 L29.6623262,0 Z M79.876407,15.01875 L79.876407,15.01875 L76.1050541,4.640625 L74.4948135,4.640625 L79.0995365,16.453125 L80.6391525,16.453125 L85.0743765,4.640625 L83.5488855,4.640625 L79.876407,15.01875 Z M105.301258,16.425 L106.71375,16.425 L106.71375,4.640625 L105.301258,4.640625 L105.301258,16.425 Z M94.6369455,12.3890625 C94.4934361,12.990614 94.2344325,13.5588589 93.8742,14.0625 C93.5290214,14.5351269 93.0858517,14.9283805 92.5747076,15.215625 C91.4307295,15.7785667 90.0885819,15.7785667 88.9446038,15.215625 C88.4305193,14.9324917 87.9865247,14.5385061 87.6451115,14.0625 C87.2871185,13.5744548 87.019273,13.0268455 86.8541161,12.4453125 C86.6856951,11.8504008 86.6001461,11.2352776 86.5998676,10.6171875 C86.5991646,9.98978749 86.6847078,9.36524301 86.8541161,8.7609375 C87.0224617,8.18495925 87.2901124,7.64250653 87.6451115,7.1578125 C87.9920944,6.65649661 88.4514999,6.24245152 88.9869786,5.9484375 C90.1266874,5.367589 91.4773736,5.367589 92.6170823,5.9484375 C93.1282264,6.23568201 93.5713961,6.6289356 93.9165747,7.1015625 C94.2526573,7.58785788 94.4967799,8.1311323 94.6369455,8.7046875 C94.8178967,9.30686757 94.9083343,9.93239439 94.9053189,10.5609375 C94.9072063,11.1801758 94.816763,11.7962637 94.6369455,12.3890625 L94.6369455,12.3890625 Z M94.9053189,6.159375 C94.4281471,5.5723855 93.8311317,5.09304907 93.1538292,4.753125 C91.6197828,4.07855609 89.8712788,4.07855609 88.3372324,4.753125 C87.6575244,5.08932379 87.0597672,5.56925582 86.5857427,6.159375 C86.0922443,6.74028219 85.7222432,7.41482257 85.498124,8.1421875 C85.0087965,9.71309739 85.0087965,11.3947151 85.498124,12.965625 C85.7222432,13.6929899 86.0922443,14.3675303 86.5857427,14.9484375 C87.0627018,15.5176945 87.6610146,15.9740537 88.3372324,16.284375 C89.8751803,16.9402776 91.6158813,16.9402776 93.1538292,16.284375 C93.8278862,15.970499 94.4254748,15.5146922 94.9053189,14.9484375 C95.4190324,14.3724618 95.8084506,13.6975812 96.0494372,12.965625 C96.3015636,12.1890851 96.425588,11.3769907 96.4166851,10.5609375 C96.4278821,9.74012272 96.3038204,8.92303383 96.0494372,8.1421875 C95.8295475,7.41595143 95.4643962,6.74149335 94.9759435,6.159375 L94.9053189,6.159375 Z M101.346281,5.203125 C100.528588,5.73056988 99.9080978,6.51140368 99.5806665,7.425 L99.5806665,7.425 L99.5806665,4.6125 L98.1681748,4.6125 L98.1681748,16.425 L99.5806665,16.425 L99.5806665,10.1671875 C99.5904029,9.56953551 99.7250971,8.98045769 99.9761642,8.4375 C100.168535,7.90756971 100.477388,7.42711889 100.880159,7.03125 C101.287323,6.64560932 101.76747,6.34445341 102.292651,6.1453125 C102.867868,5.94349741 103.477623,5.85745722 104.086515,5.8921875 L104.086515,4.4859375 C103.091044,4.40672267 102.097345,4.65899612 101.261532,5.203125 L101.346281,5.203125 Z M191.533878,7.565625 C191.220943,6.54641678 190.784571,5.56891697 190.234385,4.6546875 L190.234385,4.5703125 L188.285147,4.5703125 L188.426396,4.8375 C188.889056,5.76331149 189.239916,6.74043382 189.47164,7.7484375 C189.698218,8.75467817 189.811913,9.78284789 189.810638,10.8140625 C189.811139,11.822015 189.697421,12.8268064 189.47164,13.809375 C189.235756,14.7865955 188.879958,15.7311967 188.412271,16.621875 L188.271022,16.903125 L190.22026,16.903125 L190.22026,16.81875 C190.529065,16.3766204 190.793975,15.9056563 191.011256,15.4125 C191.230527,14.9005387 191.414576,14.3743248 191.562128,13.8375 C191.704267,13.3057284 191.812771,12.7656059 191.887001,12.2203125 C191.957779,11.6981884 191.99552,11.1721512 192,10.6453125 C191.99255,9.59267907 191.835623,8.54638309 191.533878,7.5375 L191.533878,7.565625 Z" id="Shape"></path>
        </g>
    </g>
</svg>