<?xml version="1.0" encoding="UTF-8"?>
<svg width="216px" height="35px" viewBox="0 0 216 35" version="1.1" xmlns="http://www.w3.org/2000/svg" xmlns:xlink="http://www.w3.org/1999/xlink">
    <!-- Generator: Sketch 46.2 (44496) - http://www.bohemiancoding.com/sketch -->
    <title>brand_lp</title>
    <desc>Created with Sketch.</desc>
    <defs></defs>
    <g id="Page-1" stroke="none" stroke-width="1" fill="none" fill-rule="evenodd">
        <g id="brand_lp" fill="#FFFFFF">
            <path d="M20.5220172,4.05118783 L17.2583354,4.05118783 C16.5115936,3.99841548 15.7784831,4.27041894 15.248,4.79707567 C14.7175168,5.3237324 14.4415708,6.05350697 14.4913009,6.79826335 L14.4913009,12.2452543 L17.3174601,12.2452543 L17.3174601,6.59783295 L20.4510676,6.59783295 L20.4510676,16.2184923 L17.0454866,16.2184923 C16.2902783,16.1653879 15.5490874,16.4414387 15.0137481,16.9751976 C14.4784088,17.5089564 14.2015406,18.2479592 14.2548022,19.0009379 L14.2548022,28.2089464 C14.2047023,28.9590291 14.4834532,29.6938885 15.0188544,30.2231851 C15.5542556,30.7524817 16.2936365,31.0241456 17.0454866,30.9678119 L23.2772268,30.9678119 L23.2772268,6.79826335 C23.3388219,6.05255522 23.0683881,5.31757078 22.5377411,4.78849035 C22.0070941,4.25940992 21.2699333,3.98977455 20.5220172,4.05118783 L20.5220172,4.05118783 Z M20.4510676,28.4093768 L17.1164362,28.4093768 L17.1164362,18.7651374 L20.4510676,18.7651374 L20.4510676,28.4093768 Z M152.44098,2.76607525 L152.44098,2.76607525 L152.44098,4.14550802 L150.572641,4.14550802 L150.572641,6.70394316 L152.44098,6.70394316 L152.44098,30.9678119 L155.267139,30.9678119 L155.267139,6.70394316 L158.235198,6.70394316 L158.235198,4.14550802 L155.267139,4.14550802 L155.267139,2.56564485 L158.235198,2.56564485 L158.235198,0.00720970786 L155.243489,0.00720970786 C154.490693,-0.0487098514 153.750419,0.22266565 153.213247,0.751471891 C152.676076,1.28027813 152.394489,2.01484991 152.44098,2.76607525 Z M39.1935878,4.05118783 L32.9263729,4.05118783 L32.9263729,30.9678119 L35.7880069,30.9678119 L35.7880069,6.59783295 L39.1344632,6.59783295 L39.1344632,30.9678119 L41.9606224,30.9678119 L41.9606224,6.79826335 C42.0024935,6.05559768 41.7240183,5.33049636 41.1953595,4.80565087 C40.6667007,4.28080538 39.9382664,4.0062602 39.1935878,4.05118783 Z M216,4.2869883 L216,4.2869883 L216,1.74034319 L212.251496,1.74034319 C211.501835,1.68439481 210.76455,1.95451778 210.229587,2.48112092 C209.694625,3.00772405 209.414292,3.73931613 209.460812,4.48741871 L209.460812,28.2089464 C209.410712,28.9590291 209.689463,29.6938885 210.224864,30.2231851 C210.760265,30.7524817 211.499646,31.0241456 212.251496,30.9678119 L216,30.9678119 L216,28.4093768 L212.322446,28.4093768 L212.322446,17.6097151 L216,17.6097151 L216,15.06307 L212.322446,15.06307 L212.322446,4.2869883 L216,4.2869883 Z M57.8769835,4.05118783 L54.4004529,4.05118783 C53.6488236,3.99163912 52.9082555,4.26016312 52.37058,4.78720335 C51.8329045,5.31424358 51.5510199,6.04794805 51.5979435,6.79826335 L51.5979435,28.2089464 C51.5514523,28.9601717 51.8330392,29.6947435 52.3702108,30.2235497 C52.9073825,30.752356 53.6476565,31.0237315 54.4004529,30.9678119 L54.7079012,30.9678119 L54.7079012,35 L57.5458853,35 L57.5458853,34.4104988 L57.5458853,30.9678119 L57.8533336,30.9678119 C58.5971586,31.0057461 59.3221328,30.7268671 59.8476551,30.2006474 C60.3731775,29.6744277 60.6497749,28.9504061 60.6085432,28.2089464 L60.6085432,22.7737454 L57.8060339,22.7737454 L57.8060339,28.4093768 L54.4714025,28.4093768 L54.4714025,6.59783295 L57.8060339,6.59783295 L57.8060339,12.2452543 L60.6321931,12.2452543 L60.6321931,6.79826335 C60.6776074,6.05673704 60.4019427,5.33138836 59.8750723,4.80607342 C59.3482019,4.28075848 58.6207054,4.00590755 57.8769835,4.05118783 Z M2.86739081,1.69318309 L0.00575679858,1.69318309 L0.00575679858,28.2089464 C-0.044343097,28.9590291 0.234407852,29.6938885 0.769809021,30.2231851 C1.30521019,30.7524817 2.04459112,31.0241456 2.79644121,30.9678119 L6.5567702,30.9678119 L6.5567702,28.4093768 L2.86739081,28.4093768 L2.86739081,1.69318309 Z M197.056456,4.05118783 L184.616625,4.05118783 L184.616625,30.9678119 L187.478259,30.9678119 L187.478259,6.59783295 L190.824716,6.59783295 L190.824716,30.9678119 L193.650875,30.9678119 L193.650875,6.8218434 C193.752421,6.85319408 193.85128,6.89262076 193.946498,6.93974363 C193.946498,6.93974363 193.946498,6.75110325 193.851899,6.59783295 L196.985506,6.59783295 L196.985506,30.9678119 L199.84714,30.9678119 L199.84714,6.79826335 C199.894064,6.04794805 199.612179,5.31424358 199.074504,4.78720335 C198.536828,4.26016312 197.79626,3.99163912 197.044631,4.05118783 L197.056456,4.05118783 Z M76.5485541,4.05118783 L73.3203472,4.05118783 C72.5745392,3.99799112 71.8423106,4.2702848 71.3135969,4.79743754 C70.7848833,5.32459028 70.5117833,6.05465718 70.5651376,6.79826335 L70.5651376,12.2452543 L73.3203472,12.2452543 L73.3203472,6.59783295 L76.4657796,6.59783295 L76.4657796,16.2184923 L73.0720236,16.2184923 C72.3168153,16.1653879 71.5756243,16.4414387 71.040285,16.9751976 C70.5049458,17.5089564 70.2280775,18.2479592 70.2813392,19.0009379 L70.2813392,28.2089464 C70.2312393,28.9590291 70.5099902,29.6938885 71.0453914,30.2231851 C71.5807925,30.7524817 72.3201735,31.0241456 73.0720236,30.9678119 L79.3037637,30.9678119 L79.3037637,6.79826335 C79.3653589,6.05255522 79.0949251,5.31757078 78.5642781,4.78849035 C78.033631,4.25940992 77.2964703,3.98977455 76.5485541,4.05118783 L76.5485541,4.05118783 Z M76.5485541,28.4093768 L73.1429732,28.4093768 L73.1429732,18.7651374 L76.4894295,18.7651374 L76.5485541,28.4093768 Z M172.200445,28.4093768 L168.865813,28.4093768 L168.865813,4.05118783 L166.004179,4.05118783 L166.004179,28.1735763 C165.944454,28.9229866 166.213773,29.6613683 166.742374,30.1974565 C167.270975,30.7335446 168.006852,31.014597 168.759389,30.9678119 L175.014779,30.9678119 L175.014779,4.05118783 L172.18862,4.05118783 L172.200445,28.4093768 Z M126.378826,4.05118783 L122.902295,4.05118783 C122.150666,3.99163912 121.410098,4.26016312 120.872422,4.78720335 C120.334747,5.31424358 120.052862,6.04794805 120.099786,6.79826335 L120.099786,28.2089464 C120.049686,28.9590291 120.328437,29.6938885 120.863838,30.2231851 C121.399239,30.7524817 122.13862,31.0241456 122.89047,30.9678119 L126.367001,30.9678119 C127.111794,31.0054419 127.837743,30.7268808 128.365067,30.2011134 C128.892391,29.6753461 129.171777,28.9515408 129.134035,28.2089464 L129.134035,22.7737454 L126.296051,22.7737454 L126.296051,28.4093768 L122.98507,28.4093768 L122.98507,18.7651374 L129.16951,18.7651374 L129.16951,6.79826335 C129.208187,6.05228416 128.925348,5.32537094 128.392215,4.80056904 C127.859082,4.27576713 127.126458,4.00308522 126.378826,4.05118783 Z M126.307876,16.2184923 L122.98507,16.2184923 L122.98507,6.59783295 L126.331526,6.59783295 L126.307876,16.2184923 Z M138.771356,30.9678119 L141.644815,30.9678119 L141.644815,7.01048378 L144.541924,7.01048378 L144.541924,4.05118783 L138.771356,4.05118783 L138.771356,30.9678119 Z M107.69543,4.05118783 L101.428215,4.05118783 L101.428215,35 L104.289849,35 L104.289849,30.9678119 L107.69543,30.9678119 C108.440295,31.0095593 109.167543,30.7319063 109.693943,30.2048082 C110.220342,29.6777102 110.4957,28.9514264 110.45064,28.2089464 L110.45064,6.79826335 C110.492191,6.05776852 110.21528,5.33470841 109.689299,4.81028065 C109.163319,4.2858529 108.438118,4.00975908 107.69543,4.05118783 Z M107.612656,28.4093768 L104.289849,28.4093768 L104.289849,6.59783295 L107.612656,6.59783295 L107.612656,28.4093768 Z" id="Shape"></path>
        </g>
    </g>
</svg>